<svg xmlns="http://www.w3.org/2000/svg" viewBox="0 0 64 80" x="0px" y="0px"><title>justice, auction, bid, law, hammer</title><g><path d="M55.5,49A3.50386,3.50386,0,0,1,59,52.5a3.28059,3.28059,0,0,1-.35,1.5H35.35A3.28059,3.28059,0,0,1,35,52.5,3.50386,3.50386,0,0,1,38.5,49Zm7.5,9.998H61.65015A3.38232,3.38232,0,0,0,61.65,56H32.35a3.38222,3.38222,0,0,0-.00013,2.998H31a1,1,0,0,0,0,2c46.00111.00326-6.00421.00055,32,0a1,1,0,0,0,0-2ZM56,31a.99943.99943,0,0,0,1,1h3a1,1,0,0,0,0-2H57A.99943.99943,0,0,0,56,31Zm-3-3a.99943.99943,0,0,0,1-1V24a1,1,0,0,0-2,0v3A.99943.99943,0,0,0,53,28Zm3.707.707,2-2A.99989.99989,0,1,0,57.293,25.293l-2,2A.99989.99989,0,0,0,56.707,28.707Zm-9.707.291a9,9,0,1,1-9,9A9.00984,9.00984,0,0,1,47,28.99805Zm1,10.96484a1.00068,1.00068,0,0,1-2,0,1,1,0,0,0-2,0,2.96142,2.96142,0,0,0,2,2.78186v.2533a1,1,0,1,0,2,0v-.2533a2.95246,2.95246,0,0,0-1-5.7467.965.965,0,1,1,1-.96387,1,1,0,0,0,2,0,2.96276,2.96276,0,0,0-2-2.78272v-.25341a1,1,0,0,0-2,0v.25341a2.9524,2.9524,0,0,0,1,5.74659A.98364.98364,0,0,1,48,39.96289ZM10.77094,19.86755,24.86359,5.7749a3.86131,3.86131,0,0,0-6.49836-1.60516L9.17285,13.36212A3.87827,3.87827,0,0,0,10.77094,19.86755Zm23.05877-3.89618a3.94222,3.94222,0,0,0-.89093-3.86084.48977.48977,0,0,0-.092-.07782,3.94837,3.94837,0,0,0-3.80426-.86261A24.55755,24.55755,0,0,1,33.82971,15.97137Zm7.00037,10.66315a3.8566,3.8566,0,0,0-1.59815-6.49121L25.15344,34.22174A3.8441,3.8441,0,0,0,31.6377,35.8269ZM15.049,23.01416,1.09772,38.08258A4.118,4.118,0,0,0,6.91718,43.902L21.98566,29.95087A25.29423,25.29423,0,0,1,15.049,23.01416ZM23.3645,10.10242l-8.48529,8.48529a23.09225,23.09225,0,0,0,11.54,11.53991l8.47821-8.47821A23.10665,23.10665,0,0,0,23.3645,10.10242Z"/></g><text x="0" y="79" fill="#000000" font-size="5px" font-weight="bold" font-family="'Helvetica Neue', Helvetica, Arial-Unicode, Arial, Sans-serif">Created by Manarul Hidayat</text><text x="0" y="84" fill="#000000" font-size="5px" font-weight="bold" font-family="'Helvetica Neue', Helvetica, Arial-Unicode, Arial, Sans-serif">from the Noun Project</text></svg>