<svg width="643" height="676" viewBox="0 0 643 676" fill="none" xmlns="http://www.w3.org/2000/svg">
<path d="M18.7906 460.804H4.21582" stroke="#263238" stroke-width="1.1133" stroke-miterlimit="10"/>
<path d="M609.148 460.804H41.8433" stroke="#263238" stroke-width="1.1133" stroke-miterlimit="10"/>
<path d="M406.884 521.737C433.531 521.737 455.133 515.795 455.133 508.464C455.133 501.134 433.531 495.191 406.884 495.191C380.237 495.191 358.635 501.134 358.635 508.464C358.635 515.795 380.237 521.737 406.884 521.737Z" fill="#263238"/>
<path d="M157.509 538.615C107.291 538.615 99.8769 531.359 99.1466 525.501C98.9807 524.281 99.1009 523.039 99.4977 521.873C99.8945 520.708 100.557 519.651 101.433 518.785C114.96 504.591 192.914 510.593 300.78 518.896C315.831 520.055 331.39 521.246 347.346 522.437C456.34 530.534 500.223 529.486 509.288 518.531C511.13 516.292 511.511 513.498 510.495 509.72C506.177 493.922 448.449 493.843 426.587 495.081C426.087 495.107 425.596 494.935 425.222 494.603C424.847 494.27 424.619 493.803 424.586 493.303C424.571 493.056 424.606 492.808 424.687 492.574C424.769 492.34 424.896 492.124 425.061 491.939C425.227 491.755 425.427 491.605 425.651 491.498C425.874 491.392 426.117 491.331 426.365 491.318C434.732 490.826 508.241 487.127 514.131 508.783C515.48 513.768 514.861 517.753 512.194 520.992C502.017 533.344 460.357 534.662 347.077 526.247C331.105 525.056 315.546 523.866 300.494 522.707C197.677 514.768 116.452 508.529 104.164 521.436C103.678 521.898 103.309 522.468 103.088 523.101C102.867 523.733 102.8 524.409 102.893 525.072C103.354 528.819 112.419 537.202 185.452 534.281C226.303 532.693 267.344 528.2 267.757 528.152C268.235 528.133 268.702 528.296 269.065 528.608C269.428 528.92 269.659 529.358 269.711 529.833C269.763 530.309 269.633 530.786 269.347 531.17C269.061 531.553 268.64 531.814 268.17 531.899C267.757 531.899 226.589 536.408 185.611 538.043C175.069 538.425 165.733 538.615 157.509 538.615Z" fill="white" stroke="#263238" stroke-width="1.1133" stroke-miterlimit="10"/>
<path d="M388.943 520.119C420.343 520.119 445.798 494.664 445.798 463.264C445.798 431.865 420.343 406.41 388.943 406.41C357.544 406.41 332.089 431.865 332.089 463.264C332.089 494.664 357.544 520.119 388.943 520.119Z" fill="white"/>
<mask id="mask0_1309_9461" style="mask-type:luminance" maskUnits="userSpaceOnUse" x="332" y="406" width="114" height="115">
<path d="M388.943 520.118C420.343 520.118 445.798 494.663 445.798 463.264C445.798 431.864 420.343 406.409 388.943 406.409C357.543 406.409 332.089 431.864 332.089 463.264C332.089 494.663 357.543 520.118 388.943 520.118Z" fill="white"/>
</mask>
<g mask="url(#mask0_1309_9461)">
<path d="M388.943 520.118C399.29 520.125 409.442 517.307 418.305 511.969C427.168 506.631 434.406 498.975 439.238 489.827C444.071 480.678 446.314 470.384 445.727 460.054C445.14 449.725 441.744 439.751 435.906 431.209C435.287 455.977 421.617 492.541 350.522 505.115C360.988 514.768 374.705 520.125 388.943 520.118Z" fill="#92E3A9"/>
<path opacity="0.3" d="M388.943 520.118C399.29 520.125 409.442 517.307 418.305 511.969C427.168 506.631 434.406 498.975 439.238 489.827C444.071 480.678 446.314 470.384 445.727 460.054C445.14 449.725 441.744 439.751 435.906 431.209C435.287 455.977 421.617 492.541 350.522 505.115C360.988 514.768 374.705 520.125 388.943 520.118Z" fill="white"/>
<path d="M416.918 485.554C406.779 475.691 394.468 468.344 380.973 464.105M416.918 485.554H419.934C426.626 478.921 432.389 471.412 437.065 463.232C410.44 435.098 384.545 437.972 384.545 437.972C384.545 437.972 410.52 435.098 437.145 463.264C438.605 460.644 439.828 458.183 440.828 455.913C429.746 440.385 410.662 429.796 400.422 428.208L398.041 427.636M416.918 485.554C393.532 485.221 375.75 481.601 362.461 476.759C363.318 440.846 376.131 416.92 382.831 406.79C384.965 406.543 387.112 406.416 389.261 406.409C391.214 406.409 393.119 406.52 395.024 406.695M398.041 427.636C394.37 426.969 390.615 426.915 386.927 427.478M398.041 427.636L404.82 408.584C401.616 407.669 398.338 407.036 395.024 406.695M395.024 406.695C390.626 413.792 379.306 436.464 379.306 481.442M429.762 473.98C407.122 451.912 382.132 450.753 382.132 450.753" stroke="#263238" stroke-width="1.1133" stroke-linecap="round" stroke-linejoin="round"/>
<path d="M362.397 476.854C363.255 440.941 376.067 417.015 382.767 406.886C377.525 407.474 372.39 408.788 367.509 410.791C355.477 428.444 348.68 449.138 347.902 470.488C352.564 472.977 357.41 475.105 362.397 476.854Z" stroke="#263238" stroke-width="1.1133" stroke-linecap="round" stroke-linejoin="round"/>
<path d="M367.51 410.744C357.692 414.792 349.2 421.504 342.995 430.122C336.789 438.741 333.116 448.922 332.391 459.517C337.065 463.816 342.28 467.488 347.902 470.44C348.68 449.091 355.477 428.397 367.51 410.744Z" stroke="#263238" stroke-width="1.1133" stroke-linecap="round" stroke-linejoin="round"/>
<path d="M440.749 455.913C441.986 453.178 443.047 450.368 443.924 447.498C441.551 439.4 437.414 431.929 431.81 425.62L427.412 440.29L431.731 425.62C428.224 421.686 424.19 418.256 419.744 415.427L414.902 433.542L419.776 415.506C415.127 412.533 410.067 410.26 404.756 408.759L397.977 427.811C408.36 429.303 424.412 435.416 440.749 455.913Z" stroke="#263238" stroke-width="1.1133" stroke-linecap="round" stroke-linejoin="round"/>
<path d="M392.087 507.163C398.701 503.162 405.011 498.678 410.964 493.747C414.219 491.016 420.188 485.602 420.379 485.602C420.188 485.602 431.588 472.742 435.367 466.026C435.367 466.121 437.049 463.359 436.954 463.264C436.859 463.168 438.32 460.866 438.224 460.771C439.15 459.214 439.956 457.59 440.638 455.913C441.875 453.179 442.936 450.368 443.813 447.498C445.329 452.687 446.099 458.064 446.099 463.47C446.099 464.359 446.099 465.121 446.099 465.947C422.094 499.653 403.597 514.101 391.96 520.435C391.023 520.435 390.07 520.435 389.102 520.435C383.28 520.436 377.492 519.547 371.939 517.8C378.855 514.646 385.582 511.094 392.087 507.163ZM392.087 507.163H392.5" stroke="#263238" stroke-width="1.1133" stroke-linecap="round" stroke-linejoin="round"/>
<path d="M446.099 465.946C422.094 499.652 403.597 514.1 392.055 520.292C406.209 519.58 419.59 513.616 429.583 503.567C439.577 493.518 445.465 480.104 446.099 465.946Z" stroke="#263238" stroke-width="1.1133" stroke-linecap="round" stroke-linejoin="round"/>
<path d="M344.679 498.971C351.724 507.826 361.248 514.382 372.035 517.8C378.95 514.646 385.677 511.095 392.182 507.163C378.623 509.672 357.412 503.448 344.679 498.971Z" stroke="#263238" stroke-width="1.1133" stroke-linecap="round" stroke-linejoin="round"/>
<path d="M392.182 507.163C398.797 503.162 405.106 498.678 411.059 493.747C370.114 497.938 344.854 485.253 334.121 478.045C336.147 485.678 339.743 492.805 344.679 498.97C357.412 503.448 378.623 509.671 392.182 507.163Z" stroke="#263238" stroke-width="1.1133" stroke-linecap="round" stroke-linejoin="round"/>
<path d="M416.918 485.586H419.934C417.251 488.285 414.314 491.016 411.059 493.746C370.113 497.938 344.854 485.252 334.121 478.076C332.868 473.319 332.233 468.421 332.232 463.501C332.232 462.184 332.295 460.898 332.39 459.596C335.852 462.85 342.885 470.122 362.397 476.885C375.75 481.633 393.532 485.252 416.918 485.586ZM416.918 485.586C417.14 485.792 417.362 485.999 417.569 486.221" stroke="#263238" stroke-width="1.1133" stroke-linecap="round" stroke-linejoin="round"/>
</g>
<path d="M388.943 520.119C420.343 520.119 445.798 494.664 445.798 463.264C445.798 431.865 420.343 406.41 388.943 406.41C357.544 406.41 332.089 431.865 332.089 463.264C332.089 494.664 357.544 520.119 388.943 520.119Z" stroke="#263238" stroke-width="1.1133" stroke-linecap="round" stroke-linejoin="round"/>
<path d="M260.981 366.1C260.981 366.1 257.091 353.478 245.755 348.937C237.817 345.762 228.815 346.619 220.638 348.032C205.429 350.683 192.156 356.732 177.771 361.892C177.771 361.892 183.932 359.622 209.191 371.942C218.495 376.467 229.132 379.992 239.77 379.753C248.296 379.563 261.41 377.118 260.981 366.1Z" fill="#92E3A9"/>
<path d="M262.347 328.997C262.347 328.997 262.347 315.771 252.821 308.166C246.184 302.864 237.262 301.038 229.006 300.037C213.669 298.18 199.221 300.133 183.916 300.911C183.916 300.911 190.473 300.53 211.097 319.613C218.702 326.631 227.878 333.077 238.087 335.919C246.311 338.205 259.552 339.666 262.347 328.997Z" fill="#92E3A9"/>
<path d="M288.4 378.071C288.4 378.071 278.096 369.799 278.064 357.59C278.064 349.096 282.145 340.983 286.479 333.918C294.544 320.74 305.055 310.642 315.184 299.132C315.184 299.132 310.802 304.022 312.929 332.044C313.723 342.364 313.056 353.557 308.913 363.353C305.658 371.228 298.561 382.516 288.4 378.071Z" fill="#92E3A9"/>
<path d="M324.917 398.361C324.917 398.361 323.456 385.231 332.061 376.563C338.031 370.545 346.683 367.688 354.733 365.751C369.752 362.131 384.327 362.401 399.616 361.4C399.616 361.4 393.075 361.766 374.785 383.104C368.053 391.042 359.686 398.425 349.827 402.442C341.968 405.664 328.981 408.633 324.917 398.361Z" fill="#92E3A9"/>
<path d="M322.583 351.541C322.583 351.541 309.484 349.746 303.197 339.284C298.815 332.012 298.164 322.931 298.244 314.643C298.402 299.211 302.245 285.128 305.023 270.062C305.023 270.062 303.769 276.507 319.995 299.449C325.964 307.911 331.108 317.85 332.696 328.392C333.823 336.855 333.522 350.175 322.583 351.541Z" fill="#92E3A9"/>
<path d="M360.274 328.028C360.274 328.028 369.689 337.3 381.818 335.967C390.249 334.998 397.838 329.965 404.347 324.853C416.477 315.327 425.289 303.674 435.529 292.29C435.529 292.29 431.195 297.196 403.109 298.355C392.773 298.784 381.739 300.736 372.483 306.007C365.053 310.167 354.685 318.534 360.274 328.028Z" fill="#92E3A9"/>
<path d="M349.367 318.867C349.367 318.867 362.512 320.185 371.086 311.5C377.056 305.451 379.818 296.782 381.676 288.701C385.137 273.666 384.724 259.075 385.55 243.786C385.55 243.786 385.264 250.327 364.1 268.84C356.321 275.651 348.938 284.097 345.048 293.988C341.889 301.942 339.047 314.961 349.367 318.867Z" fill="#92E3A9"/>
<path d="M302.419 446.849L279.716 390.979L253.535 326.377" stroke="#263238" stroke-width="1.1133" stroke-linecap="round" stroke-linejoin="round"/>
<path d="M307.658 437.243L330.346 359.559L354.796 311.548" stroke="#263238" stroke-width="1.1133" stroke-linecap="round" stroke-linejoin="round"/>
<path d="M316.375 406.697L339.078 393.599" stroke="#263238" stroke-width="1.1133" stroke-linecap="round" stroke-linejoin="round"/>
<path d="M330.346 359.559L318.994 334.235" stroke="#263238" stroke-width="1.1133" stroke-linecap="round" stroke-linejoin="round"/>
<path d="M344.556 334.362L372.245 322.01" stroke="#263238" stroke-width="1.1133" stroke-linecap="round" stroke-linejoin="round"/>
<path d="M284.082 401.457L293.687 363.052" stroke="#263238" stroke-width="1.1133" stroke-linecap="round" stroke-linejoin="round"/>
<path d="M271.349 372.26L249.169 360.432" stroke="#263238" stroke-width="1.1133" stroke-linecap="round" stroke-linejoin="round"/>
<path d="M314.057 474.775H295.132C292.038 474.774 289.042 473.693 286.659 471.72C284.277 469.746 282.658 467.003 282.081 463.963L275.349 428.511H333.839L327.123 463.963C326.543 467.004 324.921 469.748 322.536 471.721C320.151 473.695 317.152 474.775 314.057 474.775Z" fill="#263238" stroke="#263238" stroke-width="1.1133" stroke-linecap="round" stroke-linejoin="round"/>
<path d="M13.3506 281.932C13.3506 277.534 15.3828 274.295 19.9553 274.295C24.5278 274.295 26.6394 277.471 26.6394 281.932V297.364C26.6394 301.762 24.6071 305.001 19.9553 305.001C15.3034 305.001 13.3506 301.826 13.3506 297.364V281.932ZM15.3352 297.491C15.3352 300.778 16.6371 303.191 19.9553 303.191C23.2735 303.191 24.7183 300.778 24.7183 297.491V281.805C24.7183 278.519 23.3846 276.105 19.9553 276.105C16.5259 276.105 15.3352 278.519 15.3352 281.805V297.491Z" fill="#263238"/>
<path d="M29.7666 281.932C29.7666 277.534 31.7988 274.295 36.3713 274.295C40.9438 274.295 43.0554 277.471 43.0554 281.932V297.364C43.0554 301.762 41.0232 305.001 36.3713 305.001C31.7194 305.001 29.7666 301.826 29.7666 297.364V281.932ZM31.7512 297.491C31.7512 300.778 33.0531 303.191 36.3713 303.191C39.6895 303.191 41.1343 300.778 41.1343 297.491V281.805C41.1343 278.519 39.8007 276.105 36.3713 276.105C32.9419 276.105 31.7512 278.519 31.7512 281.805V297.491Z" fill="#263238"/>
<path d="M52.5977 274.55C57.2654 274.55 59.0754 277.487 59.0754 281.885V285.172C59.0754 289.935 56.8685 292.316 52.0896 292.316H48.3269V304.748H46.3423V274.582L52.5977 274.55ZM52.0896 290.506C55.5825 290.506 57.0908 288.919 57.0908 285.299V281.758C57.0908 278.488 55.9635 276.36 52.5977 276.36H48.3269V290.506H52.0896Z" fill="#263238"/>
<path d="M74.7772 281.837V282.488H72.872V281.71C72.872 278.535 71.6653 276.106 68.3947 276.106C65.1241 276.106 63.9016 278.44 63.9016 281.615C63.9016 288.934 74.8089 289.061 74.8089 297.397C74.8089 301.747 72.9196 304.938 68.2995 304.938C63.6794 304.938 61.79 301.763 61.79 297.397V295.809H63.6952V297.492C63.6952 300.667 64.9336 303.049 68.2518 303.049C71.5701 303.049 72.8243 300.715 72.8243 297.492C72.8243 290.236 61.9171 290.109 61.9171 281.71C61.9171 277.17 63.9016 274.248 68.2677 274.201C72.6338 274.153 74.7772 277.487 74.7772 281.837Z" fill="#263238"/>
<path d="M79.7304 300.952V304.747H77.7935V300.952H79.7304Z" fill="#263238"/>
<path d="M85.1286 300.952V304.747H83.1758V300.952H85.1286Z" fill="#263238"/>
<path d="M90.5112 300.952V304.747H88.5107V300.952H90.5112Z" fill="#263238"/>
<path d="M19.7325 318.48C24.4002 318.48 26.2101 321.402 26.2101 325.8V329.086C26.2101 333.849 24.0033 336.246 19.2244 336.246H15.4775V348.662H13.4771V318.496L19.7325 318.48ZM19.2244 334.357C22.7173 334.357 24.2256 332.769 24.2256 329.134V325.593C24.2256 322.323 23.0983 320.211 19.7325 320.211H15.4775V334.357H19.2244Z" fill="#263238"/>
<path d="M31.5133 341.946L30.005 348.631H28.1792L34.768 318.465H37.7052L44.4369 348.631H42.4682L40.8805 341.946H31.5133ZM31.815 340.216H40.6106L36.1175 320.719L31.815 340.216Z" fill="#263238"/>
<path d="M60.2816 325.847V328.085H58.3446V325.72C58.3446 322.544 57.1062 320.02 53.7721 320.02C50.438 320.02 49.2155 322.481 49.2155 325.72V341.422C49.2155 344.597 50.4539 347.058 53.7721 347.058C57.0904 347.058 58.3446 344.645 58.3446 341.422V334.896H54.3754V333.086H60.2816V341.279C60.2816 345.645 58.3764 348.915 53.7721 348.915C49.1679 348.915 47.2627 345.645 47.2627 341.279V325.847C47.2627 321.496 49.152 318.21 53.7721 318.21C58.3922 318.21 60.2816 321.496 60.2816 325.847Z" fill="#263238"/>
<path d="M73.8247 332.42V334.23H65.5847V346.821H75.5076V348.631H63.6001V318.465H75.5076V320.275H65.5847V332.42H73.8247Z" fill="#263238"/>
<path d="M87.2406 348.662H85.4307V318.496H88.0186L97.0683 343.899V318.496H98.8782V348.662H96.6872L87.1612 321.671L87.2406 348.662Z" fill="#263238"/>
<path d="M102.165 325.847C102.165 321.449 104.181 318.21 108.753 318.21C113.326 318.21 115.437 321.385 115.437 325.847V341.279C115.437 345.677 113.421 348.915 108.753 348.915C104.086 348.915 102.165 345.74 102.165 341.279V325.847ZM104.149 341.422C104.149 344.692 105.435 347.106 108.753 347.106C112.072 347.106 113.516 344.692 113.516 341.422V325.72C113.516 322.433 112.183 320.02 108.753 320.02C105.324 320.02 104.149 322.433 104.149 325.72V341.422Z" fill="#263238"/>
<path d="M123.804 348.662V320.29H117.692V318.48H131.981V320.29H125.805V348.662H123.804Z" fill="#263238"/>
<path d="M150.89 333.182V334.992H143.095V348.662H141.11V318.496H152.573V320.306H143.047V333.198L150.89 333.182Z" fill="#263238"/>
<path d="M155.463 325.847C155.463 321.449 157.495 318.21 162.067 318.21C166.64 318.21 168.751 321.385 168.751 325.847V341.279C168.751 345.677 166.719 348.915 162.067 348.915C157.415 348.915 155.463 345.74 155.463 341.279V325.847ZM157.447 341.422C157.447 344.692 158.749 347.106 162.067 347.106C165.386 347.106 166.83 344.692 166.83 341.422V325.72C166.83 322.433 165.497 320.02 162.067 320.02C158.638 320.02 157.447 322.433 157.447 325.72V341.422Z" fill="#263238"/>
<path d="M173.927 341.375C173.927 344.55 175.134 347.106 178.452 347.106C181.77 347.106 182.977 344.613 182.977 341.375V318.48H184.834V341.279C184.834 345.598 183.025 348.916 178.484 348.916C173.943 348.916 172.006 345.598 172.006 341.279V318.48H173.991L173.927 341.375Z" fill="#263238"/>
<path d="M190.121 348.662H188.311V318.496H190.899L199.949 343.899V318.496H201.759V348.662H199.568L190.121 321.671V348.662Z" fill="#263238"/>
<path d="M211.745 318.48C216.413 318.48 218.429 321.529 218.429 325.974V341.152C218.429 345.598 216.413 348.662 211.745 348.662H205.109V318.496L211.745 318.48ZM211.745 346.852C215.111 346.852 216.508 344.566 216.508 341.248V325.895C216.508 322.577 215.095 320.29 211.745 320.29H207.125V346.852H211.745Z" fill="#263238"/>
<path d="M288.542 400.077C253.201 400.077 231.958 368.72 224.416 341.143L224.162 340.174C223.761 338.837 223.633 337.432 223.786 336.045C223.94 334.657 224.371 333.314 225.056 332.097C225.74 330.88 226.663 329.814 227.769 328.961C228.875 328.109 230.142 327.489 231.493 327.137C232.844 326.786 234.253 326.71 235.634 326.916C237.015 327.121 238.34 327.603 239.531 328.332C240.721 329.062 241.753 330.024 242.563 331.161C243.373 332.298 243.946 333.587 244.246 334.951L244.437 335.665C250.168 356.654 265.775 380.644 290.813 379.263C295.521 379.099 300.142 377.948 304.376 375.883C308.61 373.818 312.362 370.885 315.39 367.276C329.123 351.526 335.267 317.28 333.902 300.006C333.773 298.898 333.868 297.775 334.183 296.704C334.497 295.633 335.025 294.637 335.733 293.774C336.441 292.912 337.316 292.201 338.305 291.685C339.294 291.168 340.378 290.856 341.49 290.767C342.603 290.679 343.722 290.815 344.78 291.169C345.839 291.522 346.815 292.086 347.651 292.825C348.487 293.565 349.165 294.465 349.645 295.472C350.125 296.48 350.397 297.574 350.445 298.689C352.033 317.915 349.937 359.242 331.028 380.914C326.188 386.612 320.221 391.247 313.502 394.526C306.783 397.805 299.458 399.657 291.987 399.966C290.828 400.045 289.669 400.077 288.542 400.077Z" fill="white"/>
<mask id="mask1_1309_9461" style="mask-type:luminance" maskUnits="userSpaceOnUse" x="223" y="290" width="128" height="111">
<path d="M288.542 400.077C253.201 400.077 231.958 368.72 224.416 341.143L224.162 340.174C223.761 338.837 223.633 337.432 223.786 336.045C223.94 334.657 224.371 333.314 225.056 332.097C225.74 330.88 226.663 329.814 227.769 328.961C228.875 328.109 230.142 327.489 231.493 327.137C232.844 326.786 234.253 326.71 235.634 326.916C237.015 327.121 238.34 327.603 239.531 328.332C240.721 329.062 241.753 330.024 242.563 331.161C243.373 332.298 243.946 333.587 244.246 334.951L244.437 335.665C250.168 356.654 265.775 380.644 290.813 379.263C295.521 379.099 300.142 377.948 304.376 375.883C308.61 373.818 312.362 370.885 315.39 367.276C329.123 351.526 335.267 317.28 333.902 300.006C333.773 298.898 333.868 297.775 334.183 296.704C334.497 295.633 335.025 294.637 335.733 293.774C336.441 292.912 337.316 292.201 338.305 291.685C339.294 291.168 340.378 290.856 341.49 290.767C342.603 290.679 343.722 290.815 344.78 291.169C345.839 291.522 346.815 292.086 347.651 292.825C348.487 293.565 349.165 294.465 349.645 295.472C350.125 296.48 350.397 297.574 350.445 298.689C352.033 317.915 349.937 359.242 331.028 380.914C326.188 386.612 320.221 391.247 313.502 394.526C306.783 397.805 299.458 399.657 291.987 399.966C290.828 400.045 289.669 400.077 288.542 400.077Z" fill="white"/>
</mask>
<g mask="url(#mask1_1309_9461)">
<path d="M341.507 291.067C339.314 291.245 337.281 292.287 335.855 293.963C334.429 295.639 333.726 297.812 333.902 300.006C334.569 308.436 333.442 320.9 330.52 333.347C334.693 333.171 338.865 333.707 342.856 334.935C341.912 346.879 337.717 358.338 330.727 368.069C315.31 389.487 292.194 396.33 274.206 393.758C266.156 392.614 256.932 388.391 249.168 384.057C259.702 394.33 273.828 400.088 288.542 400.108C289.67 400.108 290.829 400.108 291.988 400.013C299.458 399.704 306.783 397.852 313.502 394.573C320.221 391.294 326.188 386.66 331.028 380.961C349.937 359.289 351.97 317.962 350.445 298.736C350.367 297.643 350.073 296.577 349.581 295.599C349.088 294.621 348.406 293.751 347.575 293.038C346.744 292.325 345.78 291.783 344.738 291.445C343.697 291.107 342.598 290.979 341.507 291.067Z" fill="#92E3A9"/>
<path opacity="0.5" d="M341.507 291.067C339.314 291.245 337.281 292.287 335.855 293.963C334.429 295.639 333.726 297.812 333.902 300.006C334.569 308.436 333.442 320.9 330.52 333.347C334.693 333.171 338.865 333.707 342.856 334.935C341.912 346.879 337.717 358.338 330.727 368.069C315.31 389.487 292.194 396.33 274.206 393.758C266.156 392.614 256.932 388.391 249.168 384.057C259.702 394.33 273.828 400.088 288.542 400.108C289.67 400.108 290.829 400.108 291.988 400.013C299.458 399.704 306.783 397.852 313.502 394.573C320.221 391.294 326.188 386.66 331.028 380.961C349.937 359.289 351.97 317.962 350.445 298.736C350.367 297.643 350.073 296.577 349.581 295.599C349.088 294.621 348.406 293.751 347.575 293.038C346.744 292.325 345.78 291.783 344.738 291.445C343.697 291.107 342.598 290.979 341.507 291.067Z" fill="white"/>
</g>
<path d="M288.542 400.077C253.201 400.077 231.958 368.72 224.416 341.143L224.162 340.174C223.761 338.837 223.633 337.432 223.786 336.045C223.94 334.657 224.371 333.314 225.056 332.097C225.74 330.88 226.663 329.814 227.769 328.961C228.875 328.109 230.142 327.489 231.493 327.137C232.844 326.786 234.253 326.71 235.634 326.916C237.015 327.121 238.34 327.603 239.531 328.332C240.721 329.062 241.753 330.024 242.563 331.161C243.373 332.298 243.946 333.587 244.246 334.951L244.437 335.665C250.168 356.654 265.775 380.644 290.813 379.263C295.521 379.099 300.142 377.948 304.376 375.883C308.61 373.818 312.362 370.885 315.39 367.276C329.123 351.526 335.267 317.28 333.902 300.006C333.773 298.898 333.868 297.775 334.183 296.704C334.497 295.633 335.025 294.637 335.733 293.774C336.441 292.912 337.316 292.201 338.305 291.685C339.294 291.168 340.378 290.856 341.49 290.767C342.603 290.679 343.722 290.815 344.78 291.169C345.839 291.522 346.815 292.086 347.651 292.825C348.487 293.565 349.165 294.465 349.645 295.472C350.125 296.48 350.397 297.574 350.445 298.689C352.033 317.915 349.937 359.242 331.028 380.914C326.188 386.612 320.221 391.247 313.502 394.526C306.783 397.805 299.458 399.657 291.987 399.966C290.828 400.045 289.669 400.077 288.542 400.077Z" stroke="#263238" stroke-width="1.1133" stroke-linecap="round" stroke-linejoin="round"/>
<path d="M268.157 378.595C268.998 374.706 259.695 380.786 251.899 386.454C254.783 388.891 257.887 391.054 261.171 392.916C263.95 388.391 267.347 382.342 268.157 378.595Z" fill="#92E3A9" stroke="#263238" stroke-width="1.1133" stroke-linecap="round" stroke-linejoin="round"/>
<path d="M288.543 400.077C289.67 400.077 290.829 400.077 291.988 399.981C295.361 399.792 298.712 399.32 302.006 398.568C297.624 392.853 291.591 385.296 289.86 384.724C287.876 384.057 284.05 393.79 281.922 399.696C284.12 399.952 286.33 400.079 288.543 400.077Z" fill="#92E3A9" stroke="#263238" stroke-width="1.1133" stroke-linecap="round" stroke-linejoin="round"/>
<path d="M244.437 335.664L244.246 334.95C243.946 333.586 243.373 332.297 242.563 331.16C241.753 330.023 240.721 329.061 239.531 328.331C238.34 327.602 237.015 327.12 235.634 326.915C234.253 326.709 232.844 326.785 231.493 327.136C230.142 327.488 228.875 328.108 227.769 328.96C226.663 329.812 225.74 330.879 225.056 332.096C224.371 333.313 223.94 334.656 223.786 336.043C223.633 337.431 223.761 338.836 224.162 340.173L224.416 341.142C227.064 350.826 231.13 360.066 236.483 368.561L255.392 359.558C250.433 352.26 246.73 344.184 244.437 335.664Z" fill="#92E3A9" stroke="#263238" stroke-width="1.1133" stroke-linecap="round" stroke-linejoin="round"/>
<path d="M331.028 380.913C332.481 379.231 333.828 377.46 335.061 375.61C329.06 373.562 320.074 370.736 316.739 371.038C312.786 371.403 318.152 384.104 320.915 390.09C324.634 387.437 328.028 384.357 331.028 380.913Z" fill="#92E3A9" stroke="#263238" stroke-width="1.1133" stroke-linecap="round" stroke-linejoin="round"/>
<path d="M331.362 346.984C330.727 348.254 338.49 353.907 343.73 357.542C345.391 352.597 346.728 347.548 347.73 342.428C341.38 343.698 331.981 345.746 331.362 346.984Z" fill="#92E3A9" stroke="#263238" stroke-width="1.1133" stroke-linecap="round" stroke-linejoin="round"/>
<path d="M350.303 323.504C350.652 318.979 350.826 314.661 350.842 310.691C345.381 313.692 338.903 317.852 338.903 320.583C338.903 323.313 344.968 323.647 350.303 323.504Z" fill="#92E3A9" stroke="#263238" stroke-width="1.1133" stroke-linecap="round" stroke-linejoin="round"/>
<path d="M264.822 200.665C264.822 200.665 249.406 245.31 257.71 280.048C260.169 290.214 264.943 299.674 271.66 307.691C278.377 315.707 286.855 322.064 296.433 326.265C296.433 326.265 273.904 334.204 278.968 346.413C284.033 358.622 303.45 350.763 309.785 346.81C316.12 342.857 324.074 331.012 325.185 323.106C325.892 319.066 326.158 314.962 325.979 310.865C325.979 310.865 351.652 308.103 369.037 293.877C369.037 293.877 384.453 306.118 395.519 303.752C406.585 301.387 422.382 281.62 420.795 263.854C419.207 246.088 408.967 246.104 402.711 248.803C399.464 250.031 396.503 251.911 394.011 254.328C394.011 254.328 403.092 243.215 394.011 227.862C391.33 223.358 387.66 219.524 383.278 216.65C378.896 213.775 373.918 211.936 368.719 211.271C368.719 211.271 363.956 185.979 349.763 176.501C335.569 167.022 284.97 157.211 264.822 200.665Z" fill="white"/>
<mask id="mask2_1309_9461" style="mask-type:luminance" maskUnits="userSpaceOnUse" x="255" y="168" width="166" height="185">
<path d="M264.822 200.665C264.822 200.665 249.406 245.31 257.71 280.048C260.169 290.214 264.943 299.674 271.66 307.691C278.377 315.707 286.855 322.064 296.433 326.265C296.433 326.265 273.904 334.204 278.968 346.413C284.033 358.622 303.45 350.763 309.785 346.81C316.12 342.857 324.074 331.012 325.185 323.106C325.892 319.066 326.158 314.962 325.979 310.865C325.979 310.865 351.652 308.103 369.037 293.877C369.037 293.877 384.453 306.118 395.519 303.752C406.585 301.387 422.382 281.62 420.795 263.854C419.207 246.088 408.967 246.104 402.711 248.803C399.464 250.031 396.503 251.911 394.011 254.328C394.011 254.328 403.092 243.215 394.011 227.862C391.33 223.358 387.66 219.524 383.278 216.65C378.896 213.775 373.918 211.936 368.719 211.271C368.719 211.271 363.956 185.979 349.763 176.501C335.569 167.022 284.97 157.211 264.822 200.665Z" fill="white"/>
</mask>
<g mask="url(#mask2_1309_9461)">
<path d="M382.199 216.018C374.869 228.244 364.727 238.543 352.615 246.06C340.504 253.577 326.772 258.093 312.563 259.234C281.128 261.997 263.505 255.805 255.407 251.502C256.39 234.228 259.592 217.153 264.933 200.697C285.081 157.242 335.648 167.118 349.874 176.596C364.099 186.074 368.83 211.366 368.83 211.366C373.564 211.96 378.119 213.545 382.199 216.018ZM402.711 248.803C399.464 250.031 396.503 251.911 394.011 254.328C395.934 251.677 397.201 248.609 397.71 245.374C376.356 256.011 378.023 278.715 375.372 278.715C372.101 278.715 370.482 267.299 370.482 267.299C370.482 267.299 366.401 283.605 341.904 295.036C317.406 306.467 289.701 297.481 289.701 297.481C289.701 297.481 295.417 310.532 280.731 308.896C276.609 308.502 272.658 307.059 269.252 304.705C276.294 314.094 285.647 321.5 296.401 326.202C296.401 326.202 273.872 334.14 278.937 346.349C284.001 358.558 303.434 350.699 309.753 346.746C316.072 342.793 324.042 330.949 325.154 323.042C325.86 319.003 326.126 314.898 325.948 310.801C325.948 310.801 351.62 308.039 369.005 293.813C369.005 293.813 384.421 306.054 395.487 303.689C406.553 301.323 422.351 281.557 420.763 263.791C419.175 246.025 408.967 246.104 402.711 248.803Z" fill="#92E3A9"/>
<path opacity="0.5" d="M382.199 216.018C374.869 228.244 364.727 238.543 352.615 246.06C340.504 253.577 326.772 258.093 312.563 259.234C281.128 261.997 263.505 255.805 255.407 251.502C256.39 234.228 259.592 217.153 264.933 200.697C285.081 157.242 335.648 167.118 349.874 176.596C364.099 186.074 368.83 211.366 368.83 211.366C373.564 211.96 378.119 213.545 382.199 216.018ZM402.711 248.803C399.464 250.031 396.503 251.911 394.011 254.328C395.934 251.677 397.201 248.609 397.71 245.374C376.356 256.011 378.023 278.715 375.372 278.715C372.101 278.715 370.482 267.299 370.482 267.299C370.482 267.299 366.401 283.605 341.904 295.036C317.406 306.467 289.701 297.481 289.701 297.481C289.701 297.481 295.417 310.532 280.731 308.896C276.609 308.502 272.658 307.059 269.252 304.705C276.294 314.094 285.647 321.5 296.401 326.202C296.401 326.202 273.872 334.14 278.937 346.349C284.001 358.558 303.434 350.699 309.753 346.746C316.072 342.793 324.042 330.949 325.154 323.042C325.86 319.003 326.126 314.898 325.948 310.801C325.948 310.801 351.62 308.039 369.005 293.813C369.005 293.813 384.421 306.054 395.487 303.689C406.553 301.323 422.351 281.557 420.763 263.791C419.175 246.025 408.967 246.104 402.711 248.803Z" fill="white"/>
<path d="M326.059 310.896C317.538 311.123 309.079 309.393 301.331 305.84C293.583 302.287 286.753 297.005 281.366 290.399" stroke="#263238" stroke-width="1.1133" stroke-linecap="round" stroke-linejoin="round"/>
</g>
<path d="M264.822 200.665C264.822 200.665 249.406 245.31 257.71 280.048C260.169 290.214 264.943 299.674 271.66 307.691C278.377 315.707 286.855 322.064 296.433 326.265C296.433 326.265 273.904 334.204 278.968 346.413C284.033 358.622 303.45 350.763 309.785 346.81C316.12 342.857 324.074 331.012 325.185 323.106C325.892 319.066 326.158 314.962 325.979 310.865C325.979 310.865 351.652 308.103 369.037 293.877C369.037 293.877 384.453 306.118 395.519 303.752C406.585 301.387 422.382 281.62 420.795 263.854C419.207 246.088 408.967 246.104 402.711 248.803C399.464 250.031 396.503 251.911 394.011 254.328C394.011 254.328 403.092 243.215 394.011 227.862C391.33 223.358 387.66 219.524 383.278 216.65C378.896 213.775 373.918 211.936 368.719 211.271C368.719 211.271 363.956 185.979 349.763 176.501C335.569 167.022 284.97 157.211 264.822 200.665Z" stroke="#263238" stroke-width="1.1133" stroke-linecap="round" stroke-linejoin="round"/>
<path d="M394.011 254.392C394.011 254.392 385.724 259.933 381.771 276.921" stroke="#263238" stroke-width="1.1133" stroke-linecap="round" stroke-linejoin="round"/>
<path d="M409.237 261.664C408.269 264.553 405.617 266.284 403.331 265.506C401.045 264.728 399.997 261.759 400.965 258.869C401.934 255.98 404.585 254.249 406.872 255.027C409.158 255.805 410.222 258.774 409.237 261.664Z" fill="white" stroke="#263238" stroke-width="1.1133" stroke-linecap="round" stroke-linejoin="round"/>
<path d="M417.414 266.808C416.445 269.697 413.794 271.428 411.508 270.65C409.221 269.872 408.158 266.903 409.142 264.013C410.126 261.124 412.762 259.393 415.048 260.171C417.334 260.949 418.398 263.918 417.414 266.808Z" fill="white" stroke="#263238" stroke-width="1.1133" stroke-linecap="round" stroke-linejoin="round"/>
<path d="M419.16 274.507C418.843 275.039 418.382 275.47 417.83 275.749C417.278 276.029 416.658 276.147 416.042 276.088C415.426 276.03 414.839 275.798 414.35 275.419C413.86 275.04 413.488 274.531 413.277 273.949C413.066 273.367 413.024 272.738 413.156 272.133C413.288 271.529 413.589 270.974 414.024 270.534C414.459 270.094 415.009 269.786 415.612 269.646C416.215 269.506 416.845 269.54 417.429 269.744C418.272 270.166 418.922 270.895 419.244 271.781C419.566 272.667 419.536 273.643 419.16 274.507Z" fill="white" stroke="#263238" stroke-width="1.1133" stroke-linecap="round" stroke-linejoin="round"/>
<path d="M408.729 285.082C405.871 290.242 400.156 292.528 395.948 290.194C391.741 287.86 390.662 281.811 393.519 276.651C396.377 271.491 402.093 269.205 406.3 271.539C410.507 273.873 411.587 279.922 408.729 285.082Z" fill="white" stroke="#263238" stroke-width="1.1133" stroke-linecap="round" stroke-linejoin="round"/>
<path d="M296.433 326.297C301.755 328.774 307.805 329.198 313.421 327.488" stroke="#263238" stroke-width="1.1133" stroke-linecap="round" stroke-linejoin="round"/>
<path d="M279.048 346.445C279.048 346.445 280.636 339.729 290.495 334.998" stroke="#263238" stroke-width="1.1133" stroke-linecap="round" stroke-linejoin="round"/>
<path d="M288.923 352.383C288.923 352.383 292.877 342.857 299.592 338.555" stroke="#263238" stroke-width="1.1133" stroke-linecap="round" stroke-linejoin="round"/>
<path d="M133.126 243.088C131.446 241.748 130.107 240.029 129.219 238.073C128.33 236.117 127.917 233.978 128.013 231.831V194.188H30.9117C28.5398 194.277 26.1767 193.852 23.9844 192.942C21.792 192.032 19.8224 190.659 18.2104 188.917C15.0344 185.557 13.2918 181.092 13.3521 176.469C13.3392 172.713 14.4446 169.038 16.5274 165.911L109.533 19.7508C116.519 8.96525 125.801 3.57247 137.381 3.57247C143.606 3.36098 149.685 5.49101 154.416 9.5421C158.957 13.5113 161.227 19.4121 161.227 27.2446V169.325H185.931C187.638 169.222 189.346 169.496 190.934 170.127C192.523 170.758 193.953 171.731 195.124 172.977C197.213 175.425 198.361 178.538 198.361 181.756C198.361 184.975 197.213 188.088 195.124 190.536C193.953 191.782 192.523 192.755 190.934 193.386C189.346 194.017 187.638 194.291 185.931 194.188H161.053V231.831C161.156 233.962 160.763 236.087 159.907 238.04C159.05 239.993 157.752 241.721 156.115 243.088C152.919 245.767 148.87 247.215 144.7 247.168C140.484 247.201 136.389 245.758 133.126 243.088ZM127.95 169.325V38.5011L46.5185 169.325H127.95Z" fill="#263238"/>
<path d="M267.871 243.85C258.354 239.696 249.926 233.399 243.246 225.449C236.537 217.049 231.297 207.575 227.75 197.426C223.73 186.463 220.904 175.099 219.32 163.53C217.667 150.934 216.872 138.24 216.938 125.537C216.938 41.8456 245.516 0 302.672 0C359.828 0 388.338 41.8456 388.2 125.537C388.257 138.18 387.488 150.812 385.898 163.355C384.366 174.926 381.565 186.293 377.547 197.252C374 207.4 368.761 216.874 362.051 225.274C355.363 233.235 346.939 239.556 337.426 243.754C326.49 248.59 314.628 250.974 302.672 250.74C290.711 250.98 278.839 248.63 267.871 243.85ZM319.565 219.828C324.348 217.788 328.688 214.839 332.346 211.144C336.05 207.2 339.094 202.687 341.364 197.776C343.868 192.573 345.893 187.152 347.413 181.581C349.014 175.512 350.181 169.336 350.906 163.101C351.763 156.221 352.335 149.918 352.62 144.192C352.906 138.466 353.044 132.247 353.033 125.537C353.033 118.498 352.896 111.999 352.62 106.04C352.345 100.081 351.747 93.6882 350.826 86.8612C350.036 80.6304 348.843 74.4574 347.254 68.3808C345.752 62.8659 343.726 57.5071 341.205 52.3771C338.918 47.5438 335.868 43.1103 332.171 39.2471C328.535 35.6264 324.219 32.7611 319.47 30.8166C308.614 26.6255 296.588 26.6255 285.732 30.8166C281.018 32.7378 276.733 35.5765 273.126 39.1677C269.457 43.0141 266.414 47.4125 264.108 52.2025C261.565 57.2863 259.564 62.6238 258.138 68.1268C256.588 74.2399 255.422 80.4439 254.646 86.7025C253.725 93.6247 253.127 100.071 252.851 106.04C252.576 112.01 252.433 118.509 252.423 125.537C252.423 132.237 252.566 138.482 252.851 144.271C253.137 150.061 253.703 156.412 254.55 163.323C255.283 169.557 256.45 175.732 258.043 181.804C259.542 187.372 261.545 192.793 264.029 197.998C266.275 202.879 269.293 207.366 272.967 211.287C276.598 214.958 280.913 217.881 285.669 219.892C296.534 224.316 308.699 224.316 319.565 219.892V219.828Z" fill="#263238"/>
<path d="M535.314 243.088C533.634 241.748 532.296 240.03 531.407 238.073C530.519 236.117 530.106 233.978 530.202 231.832V194.188H433.1C430.728 194.277 428.365 193.852 426.173 192.942C423.98 192.032 422.011 190.659 420.399 188.917C417.223 185.557 415.48 181.093 415.54 176.47C415.527 172.713 416.633 169.038 418.716 165.912L511.721 19.7511C518.643 8.9656 527.899 3.57282 539.489 3.57282C545.747 3.33719 551.864 5.46873 556.62 9.54245C561.161 13.5116 563.431 19.4124 563.431 27.2449V169.325H588.136C589.842 169.222 591.55 169.496 593.138 170.127C594.727 170.758 596.157 171.731 597.328 172.977C599.417 175.425 600.565 178.538 600.565 181.757C600.565 184.975 599.417 188.088 597.328 190.536C596.157 191.782 594.727 192.755 593.138 193.386C591.55 194.017 589.842 194.291 588.136 194.188H563.241V231.832C563.344 233.962 562.952 236.087 562.095 238.04C561.238 239.993 559.94 241.721 558.303 243.088C555.107 245.768 551.058 247.215 546.888 247.168C542.672 247.202 538.577 245.758 535.314 243.088ZM530.202 169.325V38.5015L448.77 169.325H530.202Z" fill="#263238"/>
<path d="M232.815 178.152C232.815 178.152 216.224 201.459 213.859 225.163C211.493 248.867 214.255 264.664 221.368 270.602C228.481 276.54 235.578 274.158 239.531 268.617C243.484 263.076 237.165 243.722 237.165 243.722C237.165 243.722 243.881 225.163 254.154 212.128C264.426 199.093 266.394 197.109 266.394 197.109C266.394 197.109 248.613 176.961 232.815 178.152Z" fill="white"/>
<mask id="mask3_1309_9461" style="mask-type:luminance" maskUnits="userSpaceOnUse" x="213" y="178" width="54" height="97">
<path d="M232.815 178.152C232.815 178.152 216.224 201.459 213.859 225.163C211.493 248.867 214.255 264.664 221.368 270.602C228.481 276.54 235.578 274.159 239.531 268.618C243.484 263.077 237.165 243.723 237.165 243.723C237.165 243.723 243.881 225.163 254.154 212.128C264.426 199.094 266.394 197.109 266.394 197.109C266.394 197.109 248.613 176.962 232.815 178.152Z" fill="white"/>
</mask>
<g mask="url(#mask3_1309_9461)">
<path d="M232.815 178.152C229.195 183.502 225.984 189.117 223.21 194.95C231.148 198.125 243.453 204.635 251.264 216.161C252.217 214.78 253.201 213.414 254.217 212.128C264.489 199.094 266.458 197.109 266.458 197.109C266.458 197.109 248.613 176.962 232.815 178.152Z" fill="#92E3A9"/>
<path opacity="0.5" d="M232.815 178.152C229.195 183.502 225.984 189.117 223.21 194.95C231.148 198.125 243.453 204.635 251.264 216.161C252.217 214.78 253.201 213.414 254.217 212.128C264.489 199.094 266.458 197.109 266.458 197.109C266.458 197.109 248.613 176.962 232.815 178.152Z" fill="white"/>
</g>
<path d="M232.815 178.152C232.815 178.152 216.224 201.459 213.859 225.163C211.493 248.867 214.255 264.664 221.368 270.602C228.481 276.54 235.578 274.158 239.531 268.617C243.484 263.076 237.165 243.722 237.165 243.722C237.165 243.722 243.881 225.163 254.154 212.128C264.426 199.093 266.394 197.109 266.394 197.109C266.394 197.109 248.613 176.961 232.815 178.152Z" stroke="#263238" stroke-width="1.1133" stroke-linecap="round" stroke-linejoin="round"/>
<path d="M221.368 270.602C219.428 265.422 218.485 259.922 218.59 254.392" stroke="#263238" stroke-width="1.1133" stroke-linecap="round" stroke-linejoin="round"/>
<path d="M232.021 272.967C232.021 272.967 228.084 266.252 227.687 254.789" stroke="#263238" stroke-width="1.1133" stroke-linecap="round" stroke-linejoin="round"/>
<path d="M237.959 220.416C237.959 216.256 230.021 208.127 218.987 204.539C217.503 208.407 216.278 212.369 215.319 216.399C219.606 217.133 223.769 218.463 227.687 220.352C233.609 223.575 237.959 225.163 237.959 220.416Z" fill="#92E3A9" stroke="#263238" stroke-width="1.1133" stroke-linecap="round" stroke-linejoin="round"/>
<path d="M231.847 179.565C229.287 183.466 226.934 187.499 224.797 191.647C228.139 192.531 231.343 193.866 234.323 195.616C246.564 202.713 248.93 203.555 244.992 193.235C242.611 186.757 236.927 182.359 231.847 179.565Z" fill="#92E3A9" stroke="#263238" stroke-width="1.1133" stroke-linecap="round" stroke-linejoin="round"/>
<path d="M362.766 166.641C362.766 166.641 381.564 188.201 386.247 211.572C390.931 234.942 389.74 250.93 383.231 257.519C376.721 264.107 369.434 262.456 364.957 257.328C360.479 252.2 364.957 232.338 364.957 232.338C364.957 232.338 356.447 214.509 344.952 202.538C333.457 190.567 331.282 188.804 331.282 188.804C331.282 188.804 346.921 167.006 362.766 166.641Z" fill="white"/>
<mask id="mask4_1309_9461" style="mask-type:luminance" maskUnits="userSpaceOnUse" x="331" y="166" width="59" height="96">
<path d="M362.766 166.641C362.766 166.641 381.564 188.201 386.247 211.572C390.931 234.942 389.74 250.93 383.231 257.519C376.721 264.107 369.434 262.456 364.957 257.328C360.479 252.2 364.957 232.338 364.957 232.338C364.957 232.338 356.447 214.509 344.952 202.538C333.457 190.567 331.282 188.804 331.282 188.804C331.282 188.804 346.921 167.006 362.766 166.641Z" fill="white"/>
</mask>
<g mask="url(#mask4_1309_9461)">
<path d="M362.766 166.641C346.889 167.006 331.203 188.868 331.203 188.868C331.203 188.868 333.362 190.646 344.873 202.601C347.025 204.868 349.05 207.254 350.938 209.746C356.945 199.598 365.528 191.218 375.816 185.454C372.03 178.81 367.663 172.514 362.766 166.641Z" fill="#92E3A9"/>
<path opacity="0.5" d="M362.766 166.641C346.889 167.006 331.203 188.868 331.203 188.868C331.203 188.868 333.362 190.646 344.873 202.601C347.025 204.868 349.05 207.254 350.938 209.746C356.945 199.598 365.528 191.218 375.816 185.454C372.03 178.81 367.663 172.514 362.766 166.641Z" fill="white"/>
</g>
<path d="M362.766 166.641C362.766 166.641 381.564 188.201 386.247 211.572C390.931 234.942 389.74 250.93 383.231 257.519C376.721 264.107 369.434 262.456 364.957 257.328C360.479 252.2 364.957 232.338 364.957 232.338C364.957 232.338 356.447 214.509 344.952 202.538C333.457 190.567 331.282 188.804 331.282 188.804C331.282 188.804 346.921 167.006 362.766 166.641Z" stroke="#263238" stroke-width="1.1133" stroke-linecap="round" stroke-linejoin="round"/>
<path d="M383.231 257.52C384.654 252.182 385.053 246.622 384.406 241.136" stroke="#263238" stroke-width="1.1133" stroke-linecap="round" stroke-linejoin="round"/>
<path d="M372.847 260.917C372.847 260.917 376.134 253.852 375.403 242.405" stroke="#263238" stroke-width="1.1133" stroke-linecap="round" stroke-linejoin="round"/>
<path d="M361.797 209.207C361.4 205.063 368.497 196.204 379.134 191.615C380.974 195.316 382.565 199.134 383.897 203.046C379.711 204.214 375.704 205.95 371.99 208.206C366.433 211.937 362.273 213.874 361.797 209.207Z" fill="#92E3A9" stroke="#263238" stroke-width="1.1133" stroke-linecap="round" stroke-linejoin="round"/>
<path d="M363.861 167.959C366.781 171.563 369.505 175.32 372.022 179.216C368.772 180.419 365.701 182.059 362.893 184.09C351.414 192.378 349.128 193.394 352.049 182.788C353.875 176.168 359.082 171.23 363.861 167.959Z" fill="#92E3A9" stroke="#263238" stroke-width="1.1133" stroke-linecap="round" stroke-linejoin="round"/>
<path d="M231.259 157.989C231.259 157.989 226.369 174.485 228.211 181.2C230.052 187.916 238.594 181.82 247.152 189.139C255.709 196.458 263.632 209.667 296.036 212.112C328.44 214.557 348 197.077 354.78 187.297C361.559 177.517 360.892 165.911 372.498 165.308C384.104 164.705 374.34 142.08 370.672 138.413C370.672 138.413 393.28 104.802 393.28 96.2443C393.28 87.6868 371.895 89.5126 345.65 97.4668C345.65 97.4668 326.09 87.0676 290.638 93.1801C255.185 99.2926 244.802 109.692 244.802 109.692C244.802 109.692 200.792 115.185 197.743 120.679C194.695 126.172 203.761 149.431 231.259 157.989Z" fill="white"/>
<mask id="mask5_1309_9461" style="mask-type:luminance" maskUnits="userSpaceOnUse" x="197" y="90" width="197" height="123">
<path d="M231.259 157.989C231.259 157.989 226.369 174.485 228.211 181.2C230.052 187.916 238.594 181.82 247.152 189.139C255.709 196.458 263.632 209.667 296.036 212.112C328.44 214.557 348 197.077 354.78 187.297C361.559 177.517 360.892 165.911 372.498 165.308C384.104 164.705 374.34 142.08 370.672 138.413C370.672 138.413 393.28 104.802 393.28 96.2443C393.28 87.6868 371.895 89.5126 345.65 97.4668C345.65 97.4668 326.09 87.0676 290.638 93.1801C255.185 99.2926 244.802 109.692 244.802 109.692C244.802 109.692 200.792 115.185 197.743 120.679C194.695 126.172 203.761 149.431 231.259 157.989Z" fill="white"/>
</mask>
<g mask="url(#mask5_1309_9461)">
<path d="M372.45 165.323C384.072 164.704 374.292 142.095 370.624 138.428C370.624 138.428 374.927 132.077 379.769 124.139C366.639 117.28 353.747 113.47 350.318 117.328C342.935 125.615 346.952 141.492 350.318 157.019C353.684 172.547 340.236 179.167 330.837 192.599C321.438 206.031 308.023 191.25 308.023 191.25C303.26 210.73 283.176 197.965 283.176 197.965C267.744 193.202 241.563 177.834 246.929 167.085C252.296 156.337 253.645 146.271 244.246 137.555C234.847 128.838 197.362 121.583 197.362 121.583C195.394 128.203 204.904 149.891 231.275 158.099C231.275 158.099 226.385 174.595 228.226 181.311C230.068 188.027 238.61 181.93 247.167 189.249C255.725 196.568 263.647 209.778 296.052 212.223C328.456 214.668 348.016 197.187 354.795 187.407C361.575 177.627 360.828 165.926 372.45 165.323Z" fill="#92E3A9"/>
<path opacity="0.5" d="M372.45 165.323C384.072 164.704 374.292 142.095 370.624 138.428C370.624 138.428 374.927 132.077 379.769 124.139C366.639 117.28 353.747 113.47 350.318 117.328C342.935 125.615 346.952 141.492 350.318 157.019C353.684 172.547 340.236 179.167 330.837 192.599C321.438 206.031 308.023 191.25 308.023 191.25C303.26 210.73 283.176 197.965 283.176 197.965C267.744 193.202 241.563 177.834 246.929 167.085C252.296 156.337 253.645 146.271 244.246 137.555C234.847 128.838 197.362 121.583 197.362 121.583C195.394 128.203 204.904 149.891 231.275 158.099C231.275 158.099 226.385 174.595 228.226 181.311C230.068 188.027 238.61 181.93 247.167 189.249C255.725 196.568 263.647 209.778 296.052 212.223C328.456 214.668 348.016 197.187 354.795 187.407C361.575 177.627 360.828 165.926 372.45 165.323Z" fill="white"/>
<path d="M324.645 169.006C325.106 172.88 316.501 177.055 305.466 178.341C294.432 179.627 285.097 177.532 284.636 173.578C284.176 169.625 292.781 165.545 303.831 164.259C314.881 162.973 324.201 165.148 324.645 169.006Z" fill="#92E3A9"/>
<path opacity="0.5" d="M324.645 169.006C325.106 172.88 316.501 177.055 305.466 178.341C294.432 179.627 285.097 177.532 284.636 173.578C284.176 169.625 292.781 165.545 303.831 164.259C314.881 162.973 324.201 165.148 324.645 169.006Z" fill="white"/>
</g>
<path d="M231.259 157.989C231.259 157.989 226.369 174.485 228.211 181.2C230.052 187.916 238.594 181.82 247.152 189.139C255.709 196.458 263.632 209.667 296.036 212.112C328.44 214.557 348 197.077 354.78 187.297C361.559 177.517 360.892 165.911 372.498 165.308C384.104 164.705 374.34 142.08 370.672 138.413C370.672 138.413 393.28 104.802 393.28 96.2443C393.28 87.6868 371.895 89.5126 345.65 97.4668C345.65 97.4668 326.09 87.0676 290.638 93.1801C255.185 99.2926 244.802 109.692 244.802 109.692C244.802 109.692 200.792 115.185 197.743 120.679C194.695 126.172 203.761 149.431 231.259 157.989Z" stroke="#263238" stroke-width="1.1133" stroke-miterlimit="10"/>
<path d="M357.669 109.089C341.793 119.758 347.397 130.427 354.494 136.349C358.828 139.969 365.814 139.524 370.593 138.508C370.593 138.508 393.201 104.897 393.201 96.3396C393.217 96.2602 373.467 98.34 357.669 109.089Z" fill="#92E3A9" stroke="#263238" stroke-width="1.1133" stroke-miterlimit="10"/>
<path d="M197.347 121.473C195.378 128.093 204.888 149.781 231.259 157.989C231.259 157.989 251.391 156.02 244.675 139.826C238.404 124.712 206.698 120.949 197.347 121.473Z" fill="#92E3A9" stroke="#263238" stroke-width="1.1133" stroke-miterlimit="10"/>
<path d="M290.543 93.2118C288.463 93.577 286.462 93.958 284.541 94.339C287.717 110.374 292.94 137.079 297.608 137.079C302.275 137.079 305.848 107.802 307.372 91.4019C301.729 91.6395 296.107 92.2441 290.543 93.2118Z" fill="#92E3A9" stroke="#263238" stroke-width="1.1133" stroke-miterlimit="10"/>
<path d="M272.332 132.316C277.19 129.458 276.46 107.977 275.682 96.3237C270.668 97.5695 265.732 99.1123 260.901 100.944C262.663 111.851 267.14 135.364 272.332 132.316Z" fill="#92E3A9" stroke="#263238" stroke-width="1.1133" stroke-miterlimit="10"/>
<path d="M319.343 122.441C324.312 124.187 327.106 106.326 328.678 92.577C323.659 91.759 318.585 91.329 313.5 91.291C313.341 102.579 313.961 120.552 319.343 122.441Z" fill="#92E3A9" stroke="#263238" stroke-width="1.1133" stroke-miterlimit="10"/>
<path d="M312.691 184.265C308.054 183.046 303.127 183.654 298.926 185.963C298.741 186.07 298.585 186.218 298.468 186.395C298.351 186.573 298.277 186.776 298.253 186.987C298.228 187.198 298.253 187.412 298.326 187.612C298.398 187.812 298.517 187.992 298.672 188.138L307.102 196.077C307.26 196.225 307.451 196.333 307.659 196.393C307.868 196.452 308.087 196.462 308.299 196.42C308.512 196.378 308.711 196.286 308.881 196.152C309.051 196.018 309.187 195.845 309.277 195.648L313.596 186.122C313.673 185.942 313.71 185.747 313.706 185.551C313.701 185.355 313.654 185.163 313.568 184.986C313.482 184.81 313.359 184.654 313.208 184.53C313.057 184.405 312.88 184.315 312.691 184.265Z" fill="#92E3A9" stroke="#263238" stroke-width="1.1133" stroke-linecap="round" stroke-linejoin="round"/>
<path d="M292.654 171.008C293.813 174.072 293.353 177.088 291.622 177.739C289.892 178.39 287.542 176.453 286.367 173.405C285.192 170.357 285.668 167.324 287.399 166.673C289.13 166.022 291.479 167.959 292.654 171.008Z" fill="#263238"/>
<path d="M315.644 168.832C315.04 172.007 316.025 174.944 317.85 175.278C319.676 175.611 321.645 173.293 322.248 170.07C322.852 166.847 321.867 163.974 320.041 163.624C318.216 163.275 316.247 165.625 315.644 168.832Z" fill="#263238"/>
<path d="M309.277 195.633C309.277 195.633 298.005 210.938 287.732 195.538" stroke="#263238" stroke-width="1.1133" stroke-linecap="round" stroke-linejoin="round"/>
<path d="M307.102 196.061C307.102 196.061 314.596 203.825 322.502 199.475C330.409 195.124 325.678 188.361 325.678 188.361" stroke="#263238" stroke-width="1.1133" stroke-linecap="round" stroke-linejoin="round"/>
<path d="M272.729 158.782C272.729 158.782 275.492 148.907 288.527 151.273" stroke="#263238" stroke-width="3.33991" stroke-linecap="round" stroke-linejoin="round"/>
<path d="M312.23 149.701C312.23 149.701 322.106 143.779 331.187 153.257" stroke="#263238" stroke-width="3.33991" stroke-linecap="round" stroke-linejoin="round"/>
<path d="M265.219 185.265L274.698 187.63" stroke="#263238" stroke-width="1.1133" stroke-miterlimit="10" stroke-linecap="round"/>
<path d="M273.507 191.187L265.219 192.758" stroke="#263238" stroke-width="1.1133" stroke-miterlimit="10" stroke-linecap="round"/>
<path d="M275.095 195.538L269.173 198.697" stroke="#263238" stroke-width="1.1133" stroke-miterlimit="10" stroke-linecap="round"/>
<path d="M335.14 180.914L343.444 178.93" stroke="#263238" stroke-width="1.1133" stroke-miterlimit="10" stroke-linecap="round"/>
<path d="M336.728 184.868H342.253" stroke="#263238" stroke-width="1.1133" stroke-miterlimit="10" stroke-linecap="round"/>
<path d="M337.903 188.821L345.413 190.79" stroke="#263238" stroke-width="1.1133" stroke-miterlimit="10" stroke-linecap="round"/>
</svg>
